<svg xmlns="http://www.w3.org/2000/svg" width="26" height="27" viewBox="0 0 26 26"><path style="stroke:none;fill-rule:nonzero;fill:#e8e8e8;fill-opacity:1" d="M18.355 16.367c3.2-3.367 3.512-8.437.75-12.148C16.344.508 11.262-.828 6.93 1.019 2.594 2.864.195 7.384 1.18 11.853c.984 4.468 5.082 7.66 9.816 7.648 2.172.004 4.281-.68 6.012-1.941l7.46 7.25a.892.892 0 0 0 1.27 0 .88.88 0 0 0 0-1.25l-7.386-7.192ZM2.781 9.75c.035-4.371 3.727-7.887 8.258-7.863 4.531.02 8.191 3.574 8.18 7.945-.012 4.367-3.692 7.902-8.223 7.902-4.55-.02-8.23-3.593-8.215-7.984Zm0 0"/></svg>